<mxfile host="Electron" agent="Mozilla/5.0 (Windows NT 10.0; Win64; x64) AppleWebKit/537.36 (KHTML, like Gecko) draw.io/26.0.16 Chrome/132.0.6834.196 Electron/34.2.0 Safari/537.36" version="26.0.16">
  <diagram id="yg3X5ZUB5-sNffCoT9FX" name="페이지-1">
    <mxGraphModel dx="792" dy="1180" grid="1" gridSize="10" guides="1" tooltips="1" connect="1" arrows="1" fold="1" page="1" pageScale="1" pageWidth="827" pageHeight="1169" math="0" shadow="0">
      <root>
        <mxCell id="0" />
        <mxCell id="1" parent="0" />
        <mxCell id="pIobSPotT8qEaNJirHua-49" value="" style="rounded=0;whiteSpace=wrap;html=1;fillColor=none;strokeColor=#FF3333;" vertex="1" parent="1">
          <mxGeometry x="50.00385843414131" y="289.24660377358487" width="249.05787651211944" height="232.45283018867926" as="geometry" />
        </mxCell>
        <mxCell id="pIobSPotT8qEaNJirHua-50" value="" style="rounded=0;whiteSpace=wrap;html=1;fillColor=none;strokeColor=#FF3333;" vertex="1" parent="1">
          <mxGeometry x="50.00385843414131" y="521.6994339622643" width="249.05787651211944" height="265.66037735849056" as="geometry" />
        </mxCell>
        <mxCell id="pIobSPotT8qEaNJirHua-51" style="edgeStyle=orthogonalEdgeStyle;rounded=0;orthogonalLoop=1;jettySize=auto;html=1;entryX=0.5;entryY=0;entryDx=0;entryDy=0;" edge="1" parent="1" source="pIobSPotT8qEaNJirHua-52" target="pIobSPotT8qEaNJirHua-54">
          <mxGeometry relative="1" as="geometry" />
        </mxCell>
        <mxCell id="pIobSPotT8qEaNJirHua-52" value="Capture Data" style="rounded=0;whiteSpace=wrap;html=1;fillColor=#f5f5f5;fontColor=#333333;strokeColor=#666666;fontSize=20;" vertex="1" parent="1">
          <mxGeometry x="50.00385843414131" y="90.00132075471697" width="199.24630120969556" height="66.41509433962264" as="geometry" />
        </mxCell>
        <mxCell id="pIobSPotT8qEaNJirHua-53" style="edgeStyle=orthogonalEdgeStyle;rounded=0;orthogonalLoop=1;jettySize=auto;html=1;entryX=0.5;entryY=0;entryDx=0;entryDy=0;" edge="1" parent="1" source="pIobSPotT8qEaNJirHua-54" target="pIobSPotT8qEaNJirHua-58">
          <mxGeometry relative="1" as="geometry" />
        </mxCell>
        <mxCell id="pIobSPotT8qEaNJirHua-54" value="PowerSupply" style="rounded=0;whiteSpace=wrap;html=1;fillColor=#f5f5f5;fontColor=#333333;strokeColor=#666666;fontSize=20;" vertex="1" parent="1">
          <mxGeometry x="50.00385843414131" y="189.62396226415092" width="199.24630120969556" height="66.41509433962264" as="geometry" />
        </mxCell>
        <mxCell id="pIobSPotT8qEaNJirHua-55" value="true" style="edgeStyle=orthogonalEdgeStyle;rounded=0;orthogonalLoop=1;jettySize=auto;html=1;entryX=0.5;entryY=0;entryDx=0;entryDy=0;" edge="1" parent="1" source="pIobSPotT8qEaNJirHua-58" target="pIobSPotT8qEaNJirHua-60">
          <mxGeometry x="0.3339" y="-20" relative="1" as="geometry">
            <mxPoint as="offset" />
          </mxGeometry>
        </mxCell>
        <mxCell id="pIobSPotT8qEaNJirHua-56" style="edgeStyle=orthogonalEdgeStyle;rounded=0;orthogonalLoop=1;jettySize=auto;html=1;entryX=0.5;entryY=0;entryDx=0;entryDy=0;" edge="1" parent="1" source="pIobSPotT8qEaNJirHua-58" target="pIobSPotT8qEaNJirHua-64">
          <mxGeometry relative="1" as="geometry">
            <Array as="points">
              <mxPoint x="265.85401807797814" y="339.0579245283019" />
              <mxPoint x="265.85401807797814" y="505.0956603773585" />
              <mxPoint x="149.6270090389891" y="505.0956603773585" />
            </Array>
          </mxGeometry>
        </mxCell>
        <mxCell id="pIobSPotT8qEaNJirHua-57" value="false" style="edgeLabel;html=1;align=center;verticalAlign=middle;resizable=0;points=[];" vertex="1" connectable="0" parent="pIobSPotT8qEaNJirHua-56">
          <mxGeometry x="-0.8733" y="2" relative="1" as="geometry">
            <mxPoint y="-13" as="offset" />
          </mxGeometry>
        </mxCell>
        <mxCell id="pIobSPotT8qEaNJirHua-58" value="timercount&lt;div&gt;monitor&lt;/div&gt;" style="rhombus;whiteSpace=wrap;html=1;fillColor=#f8cecc;strokeColor=#b85450;fontSize=20;" vertex="1" parent="1">
          <mxGeometry x="50.00385843414131" y="289.24660377358487" width="199.24630120969556" height="99.62264150943396" as="geometry" />
        </mxCell>
        <mxCell id="pIobSPotT8qEaNJirHua-59" value="" style="edgeStyle=orthogonalEdgeStyle;rounded=0;orthogonalLoop=1;jettySize=auto;html=1;" edge="1" parent="1" source="pIobSPotT8qEaNJirHua-60" target="pIobSPotT8qEaNJirHua-64">
          <mxGeometry relative="1" as="geometry" />
        </mxCell>
        <mxCell id="pIobSPotT8qEaNJirHua-60" value="PrintResult" style="rounded=0;whiteSpace=wrap;html=1;fillColor=#f5f5f5;fontColor=#333333;strokeColor=#666666;fontSize=20;" vertex="1" parent="1">
          <mxGeometry x="50.00385843414131" y="422.0767924528302" width="199.24630120969556" height="66.41509433962264" as="geometry" />
        </mxCell>
        <mxCell id="pIobSPotT8qEaNJirHua-61" value="true" style="edgeStyle=orthogonalEdgeStyle;rounded=0;orthogonalLoop=1;jettySize=auto;html=1;" edge="1" parent="1" source="pIobSPotT8qEaNJirHua-64" target="pIobSPotT8qEaNJirHua-66">
          <mxGeometry x="0.2" y="-20" relative="1" as="geometry">
            <mxPoint as="offset" />
          </mxGeometry>
        </mxCell>
        <mxCell id="pIobSPotT8qEaNJirHua-62" style="edgeStyle=orthogonalEdgeStyle;rounded=0;orthogonalLoop=1;jettySize=auto;html=1;entryX=0.5;entryY=0;entryDx=0;entryDy=0;" edge="1" parent="1" source="pIobSPotT8qEaNJirHua-64" target="pIobSPotT8qEaNJirHua-67">
          <mxGeometry relative="1" as="geometry">
            <Array as="points">
              <mxPoint x="282.4578765121194" y="588.1145283018868" />
              <mxPoint x="282.4578765121194" y="770.7560377358491" />
              <mxPoint x="149.6270090389891" y="770.7560377358491" />
            </Array>
          </mxGeometry>
        </mxCell>
        <mxCell id="pIobSPotT8qEaNJirHua-63" value="false" style="edgeLabel;html=1;align=center;verticalAlign=middle;resizable=0;points=[];" vertex="1" connectable="0" parent="pIobSPotT8qEaNJirHua-62">
          <mxGeometry x="-0.9507" y="2" relative="1" as="geometry">
            <mxPoint x="4" y="-8" as="offset" />
          </mxGeometry>
        </mxCell>
        <mxCell id="pIobSPotT8qEaNJirHua-64" value="BUFFER&lt;div&gt;notEmpty&lt;/div&gt;" style="rhombus;whiteSpace=wrap;html=1;fillColor=#f8cecc;strokeColor=#b85450;fontSize=20;" vertex="1" parent="1">
          <mxGeometry x="50.00385843414131" y="538.3032075471699" width="199.24630120969556" height="99.62264150943396" as="geometry" />
        </mxCell>
        <mxCell id="pIobSPotT8qEaNJirHua-65" value="" style="edgeStyle=orthogonalEdgeStyle;rounded=0;orthogonalLoop=1;jettySize=auto;html=1;" edge="1" parent="1" source="pIobSPotT8qEaNJirHua-66" target="pIobSPotT8qEaNJirHua-67">
          <mxGeometry relative="1" as="geometry" />
        </mxCell>
        <mxCell id="pIobSPotT8qEaNJirHua-66" value="Proccess&lt;br&gt;RxData" style="rounded=0;whiteSpace=wrap;html=1;fillColor=#f5f5f5;fontColor=#333333;strokeColor=#666666;fontSize=20;" vertex="1" parent="1">
          <mxGeometry x="50.00385843414131" y="687.7371698113209" width="199.24630120969556" height="66.41509433962264" as="geometry" />
        </mxCell>
        <mxCell id="pIobSPotT8qEaNJirHua-67" value="FND_Print" style="rounded=0;whiteSpace=wrap;html=1;fillColor=#f5f5f5;fontColor=#333333;strokeColor=#666666;fontSize=20;" vertex="1" parent="1">
          <mxGeometry x="50.00385843414131" y="803.9635849056604" width="199.24630120969556" height="66.41509433962264" as="geometry" />
        </mxCell>
        <mxCell id="pIobSPotT8qEaNJirHua-69" value="" style="group" vertex="1" connectable="0" parent="1">
          <mxGeometry x="325" y="108.21" width="245" height="741.79" as="geometry" />
        </mxCell>
        <mxCell id="21" value="센서 패리패럴과 시계패리패럴의 버퍼에서 값을 캡쳐해서 문자열로 저장" style="text;html=1;align=center;verticalAlign=middle;whiteSpace=wrap;rounded=0;fontSize=17;" parent="pIobSPotT8qEaNJirHua-69" vertex="1">
          <mxGeometry width="245.00000000000003" height="30" as="geometry" />
        </mxCell>
        <mxCell id="23" value="데이터에 따라 외부 장치에 전원 제공" style="text;html=1;align=center;verticalAlign=middle;whiteSpace=wrap;rounded=0;fontSize=17;" parent="pIobSPotT8qEaNJirHua-69" vertex="1">
          <mxGeometry y="99.62" width="245.00000000000003" height="30" as="geometry" />
        </mxCell>
        <mxCell id="24" value="precount와 currcount를 비교하여&lt;div&gt;실행 주기인지 판별&amp;nbsp;&lt;/div&gt;" style="text;html=1;align=center;verticalAlign=middle;whiteSpace=wrap;rounded=0;fontSize=17;" parent="pIobSPotT8qEaNJirHua-69" vertex="1">
          <mxGeometry y="215.8499999999999" width="245.00000000000003" height="30" as="geometry" />
        </mxCell>
        <mxCell id="25" value="결과 TX를 통해 PC에 출력" style="text;html=1;align=center;verticalAlign=middle;whiteSpace=wrap;rounded=0;fontSize=17;" parent="pIobSPotT8qEaNJirHua-69" vertex="1">
          <mxGeometry y="332.06999999999994" width="245.00000000000003" height="30" as="geometry" />
        </mxCell>
        <mxCell id="26" value="유아트 입력 버퍼에 값이 있는지 확인 있을경우 RxData Read" style="text;html=1;align=center;verticalAlign=middle;whiteSpace=wrap;rounded=0;fontSize=17;" parent="pIobSPotT8qEaNJirHua-69" vertex="1">
          <mxGeometry y="464.9000000000001" width="245.00000000000003" height="30" as="geometry" />
        </mxCell>
        <mxCell id="28" value="입력 버퍼의 데이터를 처리하는 부분" style="text;html=1;align=center;verticalAlign=middle;whiteSpace=wrap;rounded=0;fontSize=17;" parent="pIobSPotT8qEaNJirHua-69" vertex="1">
          <mxGeometry y="541.79" width="245.00000000000003" height="30" as="geometry" />
        </mxCell>
        <mxCell id="29" value="입력받은 데이터를 출력" style="text;html=1;align=center;verticalAlign=middle;whiteSpace=wrap;rounded=0;fontSize=17;" parent="pIobSPotT8qEaNJirHua-69" vertex="1">
          <mxGeometry y="597.73" width="245.00000000000003" height="30" as="geometry" />
        </mxCell>
        <mxCell id="pIobSPotT8qEaNJirHua-68" value="입력받은 데이터를 출력" style="text;html=1;align=center;verticalAlign=middle;whiteSpace=wrap;rounded=0;fontSize=17;" vertex="1" parent="pIobSPotT8qEaNJirHua-69">
          <mxGeometry y="711.79" width="245.00000000000003" height="30" as="geometry" />
        </mxCell>
      </root>
    </mxGraphModel>
  </diagram>
</mxfile>
